# xmcd
#
# Track frame offsets:
#	150
#	8827
#	30515
#	50850
#	74652
#	98447
#	121642
#	140765
#	164470
#	188617
#
# Disc length: 2758 seconds
#
# Revision: 1
# Processed by: cddbd v1.5.1PL0 Copyright (c) Steve Scherf et al.
# Submitted via: CDex 1.50Beta5
#
DISCID=820ac40a
DTITLE=山本達彦 - 夏がはじまる日
DYEAR=1993
DGENRE=Pop
TTITLE0=塩とコショー
TTITLE1=世界中の時を止めて
TTITLE2=HOLIDAY
TTITLE3=さよならに愛してる
TTITLE4=街角
TTITLE5=Missing Whisper
TTITLE6=涙の微笑み
TTITLE7=愛する人へ
TTITLE8=LONELY
TTITLE9=夏がはじまる日
EXTD=
EXTT0=
EXTT1=
EXTT2=
EXTT3=
EXTT4=
EXTT5=
EXTT6=
EXTT7=
EXTT8=
EXTT9=
PLAYORDER=
